<svg width="34" height="34" viewBox="0 0 34 34" fill="none" xmlns="http://www.w3.org/2000/svg">
<path d="M3.80566 17.7437L11.7107 21.7812C11.9444 21.8981 12.4544 22.1849 12.7413 21.7174C13.0069 21.2818 12.5607 20.9312 12.3482 20.7718L3.14691 13.7274C2.47754 13.1962 2.32879 12.1656 2.83879 11.4643C3.34879 10.7312 4.41129 10.5187 5.13379 11.0181L14.4838 17.7224C14.6538 17.8499 15.1213 18.1899 15.4613 17.7968C15.8013 17.4249 15.4294 16.9999 15.2807 16.8406L6.60004 7.68181C5.97316 6.99118 6.01566 5.84368 6.85504 5.06806C7.52441 4.45181 8.70379 4.43056 9.34129 5.08931L17.8732 13.9718C18.0007 14.0993 18.3938 14.5031 18.7975 14.2056C19.2119 13.8868 18.9144 13.4193 18.84 13.2387L13.5382 4.44118C13.1769 3.87806 13.1663 2.71993 14.1438 2.13556C15.1532 1.54056 16.12 2.13556 16.4919 2.76243L22.3888 12.2399C23.2282 13.6424 24.5457 14.8218 25.7144 15.3743C26.6175 15.7993 27.3188 15.2574 27.4357 14.3118C27.6163 12.8456 27.9032 11.0287 28.4132 9.49868C28.9444 7.8943 30.8144 7.09743 32.4082 7.90493L31.8663 10.0406C31.3244 12.2081 31.2607 14.4818 31.6325 16.6918C31.9513 18.5406 32.27 20.9206 32.2275 23.0349C32.1744 26.2224 30.0282 27.6143 28.105 29.3462C19.8069 36.8793 13.7719 26.6368 10.8288 25.1812L2.27566 20.4318C1.55316 20.0174 1.39379 19.0506 1.81879 18.3493C2.23316 17.6693 3.08316 17.3718 3.80566 17.7437Z" fill="#FFD869"/>
<path d="M29.9203 7.86253C30.1753 7.91566 30.4197 7.99003 30.6641 8.10691L30.1222 10.2425C29.5803 12.41 29.5166 14.6838 29.8884 16.8938C30.2072 18.7425 30.5259 21.1225 30.4834 23.2369C30.4303 26.4244 28.2841 27.8163 26.3609 29.5482C24.7884 30.9719 23.3009 31.7582 21.8984 32.0875C23.7897 32.1194 25.8616 31.3863 28.0928 29.3569C30.0159 27.625 32.1516 26.2332 32.2153 23.0457C32.2578 20.9207 31.9391 18.5407 31.6203 16.7025C31.2378 14.4925 31.3122 12.2188 31.8541 10.0513L32.3959 7.91566C31.5778 7.50128 30.6747 7.52253 29.9203 7.86253Z" fill="#F2C34E"/>
<path d="M29.898 15.8418C30.2167 17.6906 30.5355 20.0706 30.493 22.1849C30.4398 25.3724 28.2936 26.7643 26.3705 28.4962C23.0555 31.5031 20.1017 31.6731 17.5623 30.7062C20.4523 32.4593 24.0011 33.0862 28.1023 29.3568C30.0255 27.6249 32.1611 26.2331 32.2248 23.0456C32.2673 20.9206 31.9486 18.5406 31.6298 16.7024C31.258 14.4924 29.5155 13.6318 29.898 15.8418ZM7.59609 5.28056L17.0523 15.0237C17.1798 15.1512 17.573 15.5549 17.9767 15.2574C18.3911 14.9387 18.0936 14.4712 18.0192 14.2906L17.6048 13.5999L9.33859 5.09993C8.75422 4.49431 7.73422 4.46243 7.05422 4.91931C7.25609 5.00431 7.43672 5.12118 7.59609 5.28056ZM3.30359 11.2731L13.6736 18.6999C13.8648 18.8381 14.3855 19.2099 14.7573 18.7743C15.0867 18.4237 14.8211 18.0199 14.6405 17.8074L5.22672 11.0606C4.59984 10.6249 3.70734 10.6887 3.09109 11.1562C3.16547 11.1987 3.23984 11.2306 3.30359 11.2731ZM14.7467 2.95368L20.6436 12.4312C21.483 13.8337 22.8005 15.0131 23.9692 15.5656C24.5961 15.8631 25.1273 15.6718 25.4355 15.2149C24.3411 14.6199 23.1723 13.5362 22.3861 12.2399L16.4892 2.76243C16.1173 2.13556 15.1505 1.54056 14.1411 2.13556C14.0773 2.16743 14.0348 2.20993 13.9817 2.25243C14.3111 2.43306 14.5873 2.68806 14.7467 2.95368ZM11.113 22.7693C11.3786 22.9074 11.9842 23.2368 12.3136 22.6949C12.4411 22.4824 12.4092 22.3018 12.3348 22.1424L3.89859 17.8287C3.22922 17.4887 2.48547 17.6374 1.96484 18.0943L11.113 22.7693Z" fill="#F2C34E"/>
<path d="M22.0474 32.6294C18.2224 32.6294 15.1093 29.6757 12.9418 27.625C12.0068 26.7325 11.1887 25.9675 10.5937 25.67L2.01932 20.91C1.57307 20.655 1.25432 20.2407 1.12682 19.7307C0.978068 19.1782 1.07369 18.5832 1.36057 18.0838C1.92369 17.1275 3.07119 16.7769 4.03807 17.2657L11.9431 21.3032C12.0281 21.3457 12.2299 21.4413 12.2937 21.4413C12.2618 21.4094 12.1768 21.3244 12.0174 21.1969L2.81619 14.1525C2.38179 13.7979 2.09686 13.2927 2.0181 12.7375C1.93935 12.1823 2.07255 11.6177 2.39119 11.1563C2.72057 10.6888 3.24119 10.3488 3.83619 10.2532C4.40994 10.1469 4.97307 10.2744 5.41932 10.5932L14.7799 17.2975C14.9712 17.4463 15.0456 17.4569 15.0668 17.4569C15.0562 17.4463 15.0349 17.3613 14.8968 17.2125L6.20557 8.05378C5.35557 7.09753 5.47244 5.62066 6.48182 4.68566C7.38494 3.86753 8.89369 3.88878 9.71182 4.72816L18.2437 13.6107C18.3924 13.7594 18.4562 13.7807 18.4881 13.7913C18.4774 13.7382 18.4031 13.5894 18.3818 13.5363L13.0693 4.72816C12.7824 4.29253 12.6868 3.65503 12.8249 3.08128C12.9631 2.49691 13.3243 2.01878 13.8556 1.70003C15.0562 0.988159 16.3631 1.55128 16.9368 2.50753L22.8231 11.985C23.5668 13.2282 24.7887 14.3757 25.9256 14.9282C26.0849 15.0025 26.3293 15.0663 26.5206 14.96C26.7118 14.8538 26.8499 14.6094 26.8924 14.2694C27.0624 12.9519 27.3387 10.9969 27.8912 9.36066C28.1887 8.44691 28.8793 7.71378 29.7824 7.34191C30.6962 6.97003 31.7374 7.01253 32.6406 7.45878C32.8637 7.57566 32.9806 7.82003 32.9168 8.06441L32.3749 10.2C31.8543 12.2825 31.7799 14.45 32.1518 16.6282C32.5874 19.125 32.7893 21.2925 32.7574 23.0775C32.7043 26.0844 30.9299 27.625 29.2087 29.1232C28.9643 29.3357 28.7093 29.5588 28.4649 29.7819C26.1699 31.8432 24.0131 32.6294 22.0474 32.6294ZM3.13494 18.1157C2.79494 18.1157 2.47619 18.2963 2.28494 18.6257V18.6363C2.13619 18.8807 2.09369 19.1888 2.15744 19.465C2.19994 19.6244 2.30619 19.8475 2.53994 19.9857L11.0824 24.735C11.8049 25.0857 12.6656 25.9038 13.6643 26.86C17.0537 30.0688 21.6862 34.4675 27.7424 28.9744C27.9974 28.7407 28.2524 28.5282 28.5074 28.305C30.1862 26.8388 31.6418 25.585 31.6949 23.0457C31.7268 21.335 31.5249 19.2313 31.1106 16.7982C30.7068 14.4713 30.7918 12.155 31.3443 9.92378L31.7693 8.23441C31.2487 8.07503 30.6962 8.09628 30.1862 8.30878C29.5699 8.56378 29.1024 9.06316 28.9006 9.67941C28.3799 11.2413 28.1037 13.1113 27.9443 14.3863C27.8593 15.0557 27.5299 15.5975 27.0412 15.8738C26.5843 16.1288 26.0212 16.1288 25.4793 15.8738C24.1406 15.2363 22.7806 13.9507 21.9306 12.5269L16.0337 3.04941C15.8637 2.77316 15.2156 2.11441 14.4081 2.60316C14.1473 2.75362 13.9557 3.00015 13.8743 3.29004C13.7928 3.57993 13.8281 3.89017 13.9724 4.15441L19.2849 12.9625C19.7524 13.8869 19.4443 14.365 19.1149 14.62C18.8281 14.8325 18.2437 15.0875 17.4999 14.3544L8.95744 5.46128C8.53244 5.03628 7.68244 5.03628 7.21494 5.46128C6.56682 6.06691 6.58807 6.88503 6.99182 7.33128L15.6618 16.4688C16.3099 17.1488 16.1824 17.7863 15.8424 18.1582C15.6937 18.3282 15.1093 18.87 14.1531 18.1475L4.80307 11.4538C4.59057 11.305 4.31432 11.2413 4.01682 11.2944C3.70869 11.3475 3.43244 11.5175 3.26244 11.7619C2.92244 12.24 3.01807 12.9519 3.46432 13.3132L12.6549 20.3469C13.5049 21.0163 13.4093 21.6113 13.1756 21.9832C12.9312 22.3869 12.4318 22.7588 11.4649 22.2488L3.54932 18.2007C3.42182 18.1475 3.28369 18.1157 3.13494 18.1157ZM8.36244 30.6638C6.83057 30.6607 5.32952 30.2331 4.02597 29.4285C2.72243 28.6239 1.66741 27.4737 0.978068 26.1057C0.917534 25.9786 0.909219 25.8329 0.954909 25.6998C1.0006 25.5667 1.09665 25.4569 1.22244 25.3938C1.48807 25.2663 1.80682 25.3725 1.93432 25.6275C2.55186 26.8495 3.50395 27.8709 4.67966 28.5725C5.85537 29.2742 7.20627 29.6273 8.57494 29.5907C8.87244 29.6013 9.11682 29.8138 9.11682 30.1113C9.11968 30.1814 9.10834 30.2514 9.08346 30.3171C9.05858 30.3827 9.02069 30.4426 8.97205 30.4932C8.92342 30.5439 8.86505 30.5841 8.80046 30.6116C8.73587 30.6391 8.66639 30.6532 8.59619 30.6532C8.52182 30.6638 8.44744 30.6638 8.36244 30.6638ZM8.30932 28.0288H8.25619C7.25066 27.9302 6.2842 27.5885 5.44014 27.0332C4.59607 26.4779 3.89974 25.7257 3.41119 24.8413C3.3771 24.78 3.35555 24.7126 3.3478 24.6429C3.34004 24.5733 3.34623 24.5027 3.36601 24.4355C3.38579 24.3682 3.41876 24.3056 3.463 24.2512C3.50725 24.1968 3.56187 24.1518 3.62369 24.1188C3.87869 23.9807 4.20807 24.0657 4.34619 24.3313C5.16432 25.8188 6.67307 26.8069 8.36244 26.9769C8.64932 27.0088 8.87244 27.2638 8.84057 27.5613C8.80869 27.8269 8.57494 28.0288 8.30932 28.0288Z" fill="#455A64"/>
<path d="M26.1703 8.69126C25.9047 8.69126 25.671 8.48939 25.6391 8.21314C25.4869 6.85283 24.9519 5.56362 24.0961 4.49532C23.2404 3.42703 22.099 2.62351 20.8047 2.17814C20.7391 2.15581 20.6786 2.12079 20.6265 2.07507C20.5745 2.02935 20.532 1.97382 20.5014 1.91167C20.4708 1.84951 20.4528 1.78194 20.4483 1.71281C20.4438 1.64368 20.453 1.57434 20.4753 1.50876C20.4977 1.44318 20.5327 1.38264 20.5784 1.3306C20.6241 1.27856 20.6796 1.23603 20.7418 1.20544C20.804 1.17486 20.8715 1.15682 20.9407 1.15234C21.0098 1.14787 21.0791 1.15706 21.1447 1.17939C24.1622 2.21001 26.3403 4.93001 26.691 8.10689C26.7228 8.39376 26.5103 8.65939 26.2235 8.69126H26.1703ZM23.5885 9.22251C23.3335 9.22251 23.0997 9.03126 23.0678 8.76564C22.9426 7.937 22.618 7.15117 22.122 6.47566C21.626 5.80014 20.9734 5.25515 20.2203 4.88751C20.0935 4.82552 19.9965 4.71569 19.9507 4.58219C19.9049 4.44869 19.914 4.30245 19.976 4.17564C20.0379 4.04883 20.1478 3.95185 20.2813 3.90602C20.4148 3.86019 20.561 3.86927 20.6878 3.93126C21.5946 4.37578 22.3804 5.03315 22.978 5.84723C23.5756 6.66132 23.9673 7.60794 24.1197 8.60626C24.1622 8.89314 23.9603 9.16939 23.6735 9.21189C23.6416 9.21189 23.6203 9.22251 23.5885 9.22251Z" fill="#455A64"/>
</svg>
